<svg xmlns="http://www.w3.org/2000/svg" viewBox="0 0 400 277">
   <path fill="#FFD800" d="M238.696 23.502 C 230.582 42.972,230.728 42.562,230.707 46.000 C 230.652 54.995,237.201 61.615,246.154 61.615 C 256.998 61.615,264.425 51.122,260.803 40.920 C 259.654 37.684,246.368 6.158,246.154 6.158 C 245.993 6.158,243.737 11.404,238.696 23.502" />
   <path d="M130.769 146.154 L 130.769 215.385 142.308 215.385 L 153.846 215.385 153.846 146.154 L 153.846 76.923 142.308 76.923 L 130.769 76.923 130.769 146.154 M192.308 103.846 L 192.308 130.769 174.615 130.769 L 156.923 130.769 156.923 142.308 L 156.923 153.846 174.615 153.846 L 192.308 153.846 192.308 184.615 L 192.308 215.385 203.846 215.385 L 215.385 215.385 215.385 146.154 L 215.385 76.923 203.846 76.923 L 192.308 76.923 192.308 103.846 M230.769 146.154 L 230.769 215.385 246.154 215.385 L 261.538 215.385 261.538 146.154 L 261.538 76.923 246.154 76.923 L 230.769 76.923 230.769 146.154 M276.923 88.462 L 276.923 100.000 288.462 100.000 L 300.000 100.000 300.000 157.692 L 300.000 215.385 310.000 215.385 L 320.000 215.385 320.000 146.154 L 320.000 76.923 298.462 76.923 L 276.923 76.923 276.923 88.462 M323.077 88.462 L 323.077 100.000 338.462 100.000 L 353.846 100.000 353.846 88.462 L 353.846 76.923 338.462 76.923 L 323.077 76.923 323.077 88.462 M72.385 79.410 C 56.713 81.179,43.250 92.660,39.086 107.806 C 32.982 130.007,46.714 152.412,69.231 156.991 C 71.094 157.370,72.622 157.527,77.462 157.838 C 92.986 158.836,98.743 178.501,86.019 187.070 C 81.683 189.989,81.612 189.997,58.192 189.999 L 40.000 190.000 40.000 201.543 L 40.000 213.086 60.731 213.039 C 83.948 212.985,82.304 213.060,87.000 211.840 C 107.485 206.517,120.127 185.292,115.127 164.615 C 111.416 149.268,98.771 137.530,83.308 135.080 C 81.309 134.763,80.270 134.671,77.077 134.529 C 73.764 134.382,71.976 133.943,69.538 132.679 C 58.046 126.721,58.051 110.208,69.547 104.238 C 73.338 102.270,72.637 102.321,95.654 102.314 L 113.692 102.308 113.692 90.769 L 113.692 79.231 93.654 79.251 C 82.633 79.262,73.062 79.334,72.385 79.410 M33.923 237.058 C 31.841 237.605,30.902 239.535,31.981 241.051 C 32.412 241.656,33.071 241.943,34.846 242.300 C 37.164 242.766,37.825 243.651,36.615 244.669 C 35.638 245.491,32.540 245.152,31.924 244.156 C 31.678 243.758,31.527 244.066,31.569 244.879 L 31.615 245.758 32.538 246.042 C 35.981 247.101,39.038 245.532,38.464 243.000 C 38.243 242.028,37.509 241.465,36.057 241.155 C 33.882 240.691,33.508 240.556,33.179 240.115 C 32.076 238.638,34.908 237.581,37.092 238.654 C 38.195 239.195,38.154 239.208,38.154 238.314 L 38.154 237.550 37.376 237.319 C 36.421 237.036,34.547 236.894,33.923 237.058 M42.462 237.214 C 39.111 238.404,38.864 244.743,42.119 246.045 C 46.100 247.638,49.451 243.944,47.957 239.611 C 47.212 237.452,44.779 236.390,42.462 237.214 M140.144 237.124 C 138.698 237.533,138.000 238.355,138.001 239.646 C 138.002 241.176,138.752 241.798,141.188 242.286 C 143.014 242.652,143.538 242.975,143.538 243.731 C 143.538 245.265,141.168 245.674,138.956 244.521 C 138.406 244.235,137.931 244.000,137.901 244.000 C 137.871 244.000,137.846 244.375,137.846 244.834 L 137.846 245.667 138.832 245.995 C 142.021 247.056,144.925 245.874,144.923 243.515 C 144.921 242.106,144.068 241.426,141.756 240.993 C 140.106 240.685,139.576 240.434,139.442 239.899 C 139.043 238.312,141.345 237.624,143.553 238.669 C 144.656 239.191,144.615 239.204,144.615 238.336 L 144.615 237.595 143.808 237.340 C 142.670 236.982,140.995 236.883,140.144 237.124 M208.308 237.059 C 206.199 237.516,205.273 239.338,206.295 241.019 C 206.667 241.631,207.343 241.936,209.123 242.294 C 211.256 242.723,211.727 243.105,211.374 244.118 C 210.918 245.426,207.356 245.494,206.294 244.214 C 205.955 243.806,205.831 244.004,205.877 244.879 L 205.923 245.758 206.846 246.040 C 210.345 247.107,213.456 245.475,212.772 242.932 C 212.457 241.763,212.043 241.531,209.013 240.823 C 207.582 240.489,207.057 240.013,207.316 239.285 C 207.723 238.144,209.692 237.844,211.442 238.657 C 211.938 238.888,212.371 239.077,212.403 239.077 C 212.435 239.077,212.462 238.733,212.462 238.314 L 212.462 237.550 211.697 237.323 C 210.742 237.040,209.018 236.905,208.308 237.059 M266.231 237.057 C 262.465 238.053,262.049 244.712,265.666 246.107 C 269.188 247.466,272.214 244.622,271.535 240.594 C 271.090 237.954,268.747 236.392,266.231 237.057 M302.739 237.130 C 300.646 237.717,299.695 239.169,299.693 241.780 C 299.691 244.711,301.182 246.323,303.904 246.333 C 306.165 246.342,307.231 245.840,307.231 244.765 C 307.231 243.862,307.279 243.879,306.357 244.463 C 303.611 246.205,301.090 244.871,301.080 241.671 C 301.071 238.467,303.695 237.131,306.431 238.946 C 307.274 239.505,307.231 239.526,307.231 238.560 L 307.231 237.735 306.399 237.417 C 305.302 236.997,303.669 236.869,302.739 237.130 M329.825 237.032 C 326.168 237.594,325.472 244.279,328.895 245.954 C 331.274 247.118,334.146 246.002,334.847 243.642 C 336.049 239.594,333.654 236.442,329.825 237.032 M345.956 237.142 C 342.492 238.073,341.988 244.176,345.231 245.915 C 348.401 247.615,351.460 245.541,351.460 241.692 C 351.460 238.096,349.238 236.259,345.956 237.142 M356.152 237.123 C 353.311 237.764,351.946 240.980,353.239 243.985 C 354.145 246.092,356.942 246.947,359.769 245.983 L 360.846 245.615 360.889 243.577 L 360.932 241.538 359.081 241.538 L 357.231 241.538 357.231 242.154 L 357.231 242.769 358.385 242.769 L 359.538 242.769 359.538 243.833 L 359.538 244.898 358.762 245.064 C 355.805 245.698,353.853 243.967,354.220 241.035 C 354.564 238.279,357.543 237.254,360.165 238.989 C 360.943 239.504,360.923 239.515,360.923 238.567 L 360.923 237.749 359.962 237.416 C 358.742 236.993,357.240 236.877,356.152 237.123 M49.846 240.146 C 49.846 245.541,50.849 246.956,54.229 246.330 C 56.473 245.914,56.923 244.869,56.923 240.069 L 56.923 237.077 56.231 237.077 L 55.538 237.077 55.530 240.269 C 55.518 244.526,55.215 245.232,53.400 245.230 C 51.528 245.229,51.231 244.554,51.231 240.313 L 51.231 237.077 50.538 237.077 L 49.846 237.077 49.846 240.146 M57.846 237.692 L 57.846 238.308 59.385 238.308 L 60.923 238.308 60.923 242.231 L 60.923 246.154 61.615 246.154 L 62.308 246.154 62.308 242.231 L 62.308 238.308 63.923 238.308 L 65.538 238.308 65.538 237.692 L 65.538 237.077 61.692 237.077 L 57.846 237.077 57.846 237.692 M66.615 241.615 L 66.615 246.154 67.308 246.154 L 68.000 246.154 68.000 244.000 L 68.000 241.846 70.154 241.846 L 72.308 241.846 72.308 244.000 L 72.308 246.154 72.923 246.154 L 73.538 246.154 73.538 241.615 L 73.538 237.077 72.923 237.077 L 72.308 237.077 72.308 238.846 L 72.308 240.615 70.154 240.615 L 68.000 240.615 68.000 238.846 L 68.000 237.077 67.308 237.077 L 66.615 237.077 66.615 241.615 M75.846 241.615 L 75.846 246.154 78.846 246.154 L 81.846 246.154 81.846 245.615 L 81.846 245.077 79.538 245.077 L 77.231 245.077 77.231 243.462 L 77.231 241.846 79.538 241.846 L 81.846 241.846 81.846 241.231 L 81.846 240.615 79.538 240.615 L 77.231 240.615 77.231 239.462 L 77.231 238.308 79.538 238.308 L 81.846 238.308 81.846 237.692 L 81.846 237.077 78.846 237.077 L 75.846 237.077 75.846 241.615 M83.692 241.615 L 83.692 246.154 84.308 246.154 L 84.923 246.154 84.923 244.385 L 84.923 242.615 85.687 242.615 L 86.450 242.615 87.933 244.385 L 89.416 246.154 90.329 246.154 L 91.241 246.154 89.621 244.271 C 87.753 242.100,87.856 242.327,88.535 241.886 C 89.251 241.423,89.585 240.725,89.600 239.663 C 89.626 237.778,88.394 237.080,85.038 237.078 L 83.692 237.077 83.692 241.615 M92.154 241.608 L 92.154 246.154 92.767 246.154 L 93.379 246.154 93.420 242.346 L 93.462 238.538 95.462 242.342 L 97.462 246.146 98.346 246.150 L 99.231 246.154 99.231 241.615 L 99.231 237.077 98.538 237.077 L 97.846 237.077 97.845 240.577 L 97.843 244.077 96.013 240.615 L 94.183 237.154 93.168 237.108 L 92.154 237.063 92.154 241.608 M105.692 241.615 L 105.692 246.154 106.385 246.154 L 107.077 246.154 107.077 244.000 L 107.077 241.846 109.231 241.846 L 111.385 241.846 111.385 244.000 L 111.385 246.154 112.077 246.154 L 112.769 246.154 112.769 241.615 L 112.769 237.077 112.077 237.077 L 111.385 237.077 111.385 238.846 L 111.385 240.615 109.231 240.615 L 107.077 240.615 107.077 238.846 L 107.077 237.077 106.385 237.077 L 105.692 237.077 105.692 241.615 M114.923 241.615 L 114.923 246.154 118.000 246.154 L 121.077 246.154 121.077 245.615 L 121.077 245.077 118.692 245.077 L 116.308 245.077 116.308 243.462 L 116.308 241.846 118.692 241.846 L 121.077 241.846 121.077 241.231 L 121.077 240.615 118.692 240.615 L 116.308 240.615 116.308 239.462 L 116.308 238.308 118.692 238.308 L 121.077 238.308 121.077 237.692 L 121.077 237.077 118.000 237.077 L 114.923 237.077 114.923 241.615 M122.769 241.615 L 122.769 246.154 123.382 246.154 L 123.994 246.154 124.036 242.553 L 124.077 238.953 125.166 241.284 C 126.700 244.570,126.819 244.569,128.364 241.272 L 129.462 238.928 129.503 242.541 L 129.544 246.154 130.234 246.154 L 130.923 246.154 130.923 241.615 L 130.923 237.077 130.003 237.077 L 129.082 237.077 128.505 238.346 C 128.187 239.044,127.676 240.135,127.368 240.769 L 126.809 241.923 125.646 239.500 L 124.483 237.077 123.626 237.077 L 122.769 237.077 122.769 241.615 M132.769 237.615 C 132.769 238.128,132.795 238.154,133.308 238.154 L 133.846 238.154 133.846 241.692 L 133.846 245.231 133.308 245.231 C 132.812 245.231,132.769 245.267,132.769 245.692 L 132.769 246.154 134.615 246.154 L 136.462 246.154 136.462 245.692 C 136.462 245.256,136.427 245.231,135.846 245.231 L 135.231 245.231 135.231 241.692 L 135.231 238.154 135.846 238.154 C 136.447 238.154,136.462 238.141,136.462 237.615 L 136.462 237.077 134.615 237.077 L 132.769 237.077 132.769 237.615 M146.769 241.593 L 146.769 246.154 147.385 246.154 L 148.000 246.154 148.000 244.560 L 148.000 242.966 149.317 242.884 C 151.553 242.745,152.686 241.723,152.687 239.845 C 152.688 237.941,151.665 237.244,148.687 237.115 L 146.769 237.032 146.769 241.593 M154.154 241.615 L 154.154 246.154 154.846 246.154 L 155.538 246.154 155.538 244.000 L 155.538 241.846 157.692 241.846 L 159.846 241.846 159.846 244.000 L 159.846 246.154 160.462 246.154 L 161.077 246.154 161.077 241.615 L 161.077 237.077 160.462 237.077 L 159.846 237.077 159.846 238.846 L 159.846 240.615 157.692 240.615 L 155.538 240.615 155.538 238.846 L 155.538 237.077 154.846 237.077 L 154.154 237.077 154.154 241.615 M163.385 241.615 L 163.385 246.154 166.385 246.154 L 169.385 246.154 169.385 245.615 L 169.385 245.077 167.077 245.077 L 164.769 245.077 164.769 243.462 L 164.769 241.846 167.077 241.846 L 169.385 241.846 169.385 241.231 L 169.385 240.615 167.077 240.615 L 164.769 240.615 164.769 239.462 L 164.769 238.308 167.077 238.308 L 169.385 238.308 169.385 237.692 L 169.385 237.077 166.385 237.077 L 163.385 237.077 163.385 241.615 M171.231 241.593 L 171.231 246.154 171.846 246.154 L 172.462 246.154 172.462 244.385 L 172.462 242.615 173.225 242.615 L 173.989 242.615 175.471 244.385 L 176.954 246.154 177.867 246.154 L 178.780 246.154 177.159 244.271 C 175.401 242.227,175.396 242.220,175.839 242.079 C 176.650 241.822,177.337 240.316,177.150 239.208 C 176.902 237.737,175.934 237.225,173.192 237.113 L 171.231 237.033 171.231 241.593 M179.692 241.615 L 179.692 246.154 182.692 246.154 L 185.692 246.154 185.692 245.615 L 185.692 245.077 183.385 245.077 L 181.077 245.077 181.077 243.462 L 181.077 241.846 183.385 241.846 L 185.692 241.846 185.692 241.231 L 185.692 240.615 183.385 240.615 L 181.077 240.615 181.077 239.462 L 181.077 238.308 183.385 238.308 L 185.692 238.308 185.692 237.692 L 185.692 237.077 182.692 237.077 L 179.692 237.077 179.692 241.615 M191.385 237.615 C 191.385 238.141,191.399 238.154,192.000 238.154 L 192.615 238.154 192.615 241.692 L 192.615 245.231 192.000 245.231 C 191.419 245.231,191.385 245.256,191.385 245.692 L 191.385 246.154 193.231 246.154 L 195.077 246.154 195.077 245.692 C 195.077 245.267,195.034 245.231,194.538 245.231 L 194.000 245.231 194.000 241.692 L 194.000 238.154 194.538 238.154 C 195.051 238.154,195.077 238.128,195.077 237.615 L 195.077 237.077 193.231 237.077 L 191.385 237.077 191.385 237.615 M197.077 241.615 L 197.077 246.154 197.690 246.154 L 198.302 246.154 198.343 242.428 L 198.385 238.703 200.358 242.428 L 202.331 246.154 203.165 246.154 L 204.000 246.154 204.000 241.615 L 204.000 237.077 203.385 237.077 L 202.769 237.077 202.766 240.654 L 202.762 244.231 200.881 240.657 L 199.000 237.083 198.038 237.080 L 197.077 237.077 197.077 241.615 M213.385 237.692 L 213.385 238.308 215.000 238.308 L 216.615 238.308 216.615 242.231 L 216.615 246.154 217.308 246.154 L 218.000 246.154 218.000 242.231 L 218.000 238.308 219.615 238.308 L 221.231 238.308 221.231 237.692 L 221.231 237.077 217.308 237.077 L 213.385 237.077 213.385 237.692 M221.846 237.615 C 221.846 238.141,221.861 238.154,222.462 238.154 L 223.077 238.154 223.077 241.692 L 223.077 245.231 222.462 245.231 C 221.880 245.231,221.846 245.256,221.846 245.692 L 221.846 246.154 223.692 246.154 L 225.538 246.154 225.538 245.692 C 225.538 245.256,225.504 245.231,224.923 245.231 L 224.308 245.231 224.308 241.692 L 224.308 238.154 224.923 238.154 C 225.524 238.154,225.538 238.141,225.538 237.615 L 225.538 237.077 223.692 237.077 L 221.846 237.077 221.846 237.615 M226.154 237.692 L 226.154 238.308 227.769 238.308 L 229.385 238.308 229.385 242.231 L 229.385 246.154 230.077 246.154 L 230.769 246.154 230.769 242.231 L 230.769 238.308 232.385 238.308 L 234.000 238.308 234.000 237.692 L 234.000 237.077 230.077 237.077 L 226.154 237.077 226.154 237.692 M234.820 237.321 C 234.607 237.874,234.875 243.904,235.139 244.533 C 236.124 246.870,240.063 247.132,241.348 244.947 L 241.769 244.231 241.818 240.654 L 241.867 237.077 241.164 237.077 L 240.462 237.077 240.462 240.439 C 240.462 244.590,240.192 245.222,238.418 245.229 C 236.503 245.236,236.244 244.679,236.182 240.423 L 236.132 237.077 235.523 237.077 C 235.109 237.077,234.883 237.155,234.820 237.321 M242.769 237.692 L 242.769 238.308 244.385 238.308 L 246.000 238.308 246.000 242.231 L 246.000 246.154 246.692 246.154 L 247.385 246.154 247.385 242.231 L 247.385 238.308 248.923 238.308 L 250.462 238.308 250.462 237.692 L 250.462 237.077 246.615 237.077 L 242.769 237.077 242.769 237.692 M251.538 241.615 L 251.538 246.154 254.615 246.154 L 257.692 246.154 257.692 245.615 L 257.692 245.077 255.308 245.077 L 252.923 245.077 252.923 243.462 L 252.923 241.846 255.308 241.846 L 257.692 241.846 257.692 241.231 L 257.692 240.615 255.308 240.615 L 252.923 240.615 252.923 239.462 L 252.923 238.308 255.308 238.308 L 257.692 238.308 257.692 237.692 L 257.692 237.077 254.615 237.077 L 251.538 237.077 251.538 241.615 M273.385 241.615 L 273.385 246.154 274.077 246.154 L 274.769 246.154 274.769 244.000 L 274.769 241.846 276.692 241.846 L 278.615 241.846 278.615 241.308 L 278.615 240.769 276.692 240.769 L 274.769 240.769 274.769 239.538 L 274.769 238.308 277.000 238.308 L 279.231 238.308 279.231 237.692 L 279.231 237.077 276.308 237.077 L 273.385 237.077 273.385 241.615 M283.538 237.692 L 283.538 238.308 285.154 238.308 L 286.769 238.308 286.769 242.231 L 286.769 246.154 287.462 246.154 L 288.154 246.154 288.154 242.231 L 288.154 238.308 289.692 238.308 L 291.231 238.308 291.231 237.692 L 291.231 237.077 287.385 237.077 L 283.538 237.077 283.538 237.692 M292.308 241.615 L 292.308 246.154 295.385 246.154 L 298.462 246.154 298.462 245.615 L 298.462 245.077 296.077 245.077 L 293.692 245.077 293.692 243.462 L 293.692 241.846 296.077 241.846 L 298.462 241.846 298.462 241.231 L 298.462 240.615 296.077 240.615 L 293.692 240.615 293.692 239.462 L 293.692 238.308 296.077 238.308 L 298.462 238.308 298.462 237.692 L 298.462 237.077 295.385 237.077 L 292.308 237.077 292.308 241.615 M308.769 241.615 L 308.769 246.154 309.385 246.154 L 310.000 246.154 310.000 244.000 L 310.000 241.846 312.154 241.846 L 314.308 241.846 314.308 244.000 L 314.308 246.154 315.000 246.154 L 315.692 246.154 315.692 241.615 L 315.692 237.077 315.000 237.077 L 314.308 237.077 314.308 238.846 L 314.308 240.615 312.154 240.615 L 310.000 240.615 310.000 238.846 L 310.000 237.077 309.385 237.077 L 308.769 237.077 308.769 241.615 M318.000 241.615 L 318.000 246.154 318.613 246.154 L 319.225 246.154 319.267 242.394 L 319.308 238.635 321.305 242.394 L 323.303 246.154 324.113 246.154 L 324.923 246.154 324.923 241.615 L 324.923 237.077 324.311 237.077 L 323.698 237.077 323.657 240.547 L 323.615 244.017 321.779 240.547 L 319.942 237.077 318.971 237.077 L 318.000 237.077 318.000 241.615 M336.923 241.615 L 336.923 246.154 339.769 246.154 L 342.615 246.154 342.615 245.615 L 342.615 245.077 340.385 245.077 L 338.154 245.077 338.154 241.077 L 338.154 237.077 337.538 237.077 L 336.923 237.077 336.923 241.615 M361.750 237.313 C 361.803 237.452,362.505 238.636,363.308 239.944 L 364.769 242.321 364.769 244.237 L 364.769 246.154 365.462 246.154 L 366.154 246.154 366.154 244.240 L 366.154 242.325 367.611 240.008 C 369.644 236.773,369.535 237.077,368.659 237.077 L 367.923 237.077 366.795 238.922 C 366.175 239.936,365.614 240.800,365.548 240.840 C 365.483 240.880,364.915 240.068,364.286 239.034 L 363.142 237.154 362.397 237.106 C 361.757 237.065,361.666 237.094,361.750 237.313 M45.120 238.365 C 47.173 239.239,47.493 243.271,45.623 244.697 C 43.654 246.199,41.231 244.581,41.231 241.765 C 41.231 239.007,42.999 237.461,45.120 238.365 M268.505 238.365 C 271.199 239.513,270.648 244.783,267.794 245.174 C 265.466 245.493,263.977 242.999,264.776 240.120 C 265.210 238.557,266.990 237.719,268.505 238.365 M332.502 238.654 C 334.395 240.098,334.022 244.207,331.926 245.007 C 329.820 245.811,328.097 244.318,328.104 241.692 C 328.111 238.779,330.501 237.128,332.502 238.654 M348.615 238.461 C 349.894 239.114,350.497 241.210,349.947 243.088 C 349.040 246.183,345.183 245.863,344.584 242.644 C 344.002 239.513,346.202 237.230,348.615 238.461 M87.459 238.528 C 88.326 238.890,88.486 240.241,87.750 240.977 C 87.338 241.390,86.787 241.538,85.673 241.538 L 84.923 241.538 84.923 239.923 L 84.923 238.308 85.928 238.308 C 86.481 238.308,87.170 238.407,87.459 238.528 M150.462 238.577 C 152.196 239.444,151.291 241.560,149.140 241.668 L 148.000 241.726 148.000 240.017 L 148.000 238.308 148.962 238.308 C 149.569 238.308,150.122 238.407,150.462 238.577 M174.998 238.528 C 175.864 238.890,176.025 240.241,175.289 240.977 C 174.876 241.390,174.325 241.538,173.212 241.538 L 172.462 241.538 172.462 239.923 L 172.462 238.308 173.466 238.308 C 174.019 238.308,174.708 238.407,174.998 238.528" />
</svg>