<svg xmlns="http://www.w3.org/2000/svg" viewBox="0 0 400 400">
<path id="dropping" d="M243.856 9.442 C 243.407 10.003,229.174 44.488,228.910 45.654 C 225.971 58.650,239.402 69.092,251.200 62.983 C 257.459 59.743,260.955 52.041,259.154 45.463 C 258.829 44.278,244.510 9.668,244.209 9.342 C 244.129 9.254,243.970 9.299,243.856 9.442" fill="#FFD800" />
<path id="SHIT" d="M129.000 149.000 L 129.000 218.000 140.500 218.000 L 152.000 218.000 152.000 149.000 L 152.000 80.000 140.500 80.000 L 129.000 80.000 129.000 149.000 M190.400 106.800 L 190.400 133.600 172.700 133.600 L 155.000 133.600 155.000 145.100 L 155.000 156.600 172.700 156.600 L 190.400 156.600 190.400 187.300 L 190.400 218.000 201.900 218.000 L 213.400 218.000 213.400 149.000 L 213.400 80.000 201.900 80.000 L 190.400 80.000 190.400 106.800 M228.600 149.000 L 228.600 218.000 244.000 218.000 L 259.400 218.000 259.400 149.000 L 259.400 80.000 244.000 80.000 L 228.600 80.000 228.600 149.000 M274.800 91.500 L 274.800 103.000 286.300 103.000 L 297.800 103.000 297.800 160.500 L 297.800 218.000 307.700 218.000 L 317.600 218.000 317.600 149.000 L 317.600 80.000 296.200 80.000 L 274.800 80.000 274.800 91.500 M320.800 91.500 L 320.800 103.000 336.100 103.000 L 351.400 103.000 351.400 91.500 L 351.400 80.000 336.100 80.000 L 320.800 80.000 320.800 91.500 M72.400 82.330 C 51.430 84.293,36.175 100.745,36.175 121.400 C 36.175 142.551,52.227 159.239,73.700 160.410 C 78.229 160.658,79.997 161.037,82.500 162.297 C 94.487 168.335,94.151 185.535,81.935 191.198 C 78.428 192.824,79.229 192.773,56.650 192.788 L 38.400 192.800 38.400 204.311 L 38.400 215.822 58.850 215.740 C 81.272 215.650,80.500 215.689,85.330 214.400 C 108.248 208.284,120.482 183.192,111.220 161.300 C 105.362 147.456,92.363 138.446,77.000 137.582 C 71.056 137.247,68.081 136.322,65.135 133.893 C 56.060 126.407,57.632 112.031,68.077 107.008 C 71.845 105.196,70.105 105.322,92.350 105.249 L 112.000 105.185 112.000 93.693 L 112.000 82.200 92.550 82.232 C 81.853 82.250,72.785 82.294,72.400 82.330" />
<path id="text" d="M182.600 252.400 L 182.600 264.000 183.900 264.000 L 185.200 264.000 185.200 257.814 L 185.200 251.627 185.750 251.239 C 188.693 249.163,191.964 249.057,193.093 251.000 C 193.474 251.655,193.504 252.092,193.563 257.850 L 193.626 264.000 195.028 264.000 L 196.429 264.000 196.364 257.550 C 196.301 251.266,196.287 251.073,195.826 250.052 C 194.336 246.754,190.078 246.046,186.458 248.495 C 185.885 248.883,185.367 249.200,185.308 249.200 C 185.249 249.200,185.200 247.310,185.200 245.000 L 185.200 240.800 183.900 240.800 L 182.600 240.800 182.600 252.400 M77.027 244.442 C 77.926 245.904,79.683 248.761,80.931 250.792 L 83.200 254.483 83.200 259.242 L 83.200 264.000 84.700 264.000 L 86.200 264.000 86.200 259.072 L 86.200 254.143 87.036 252.822 C 87.495 252.095,89.247 249.318,90.928 246.650 L 93.985 241.800 92.442 241.800 L 90.899 241.800 87.900 246.635 C 86.250 249.294,84.818 251.476,84.717 251.485 C 84.617 251.493,83.209 249.340,81.588 246.700 L 78.642 241.900 77.017 241.842 L 75.392 241.784 77.027 244.442 M151.000 243.300 L 151.000 244.800 152.600 244.800 L 154.200 244.800 154.200 243.300 L 154.200 241.800 152.600 241.800 L 151.000 241.800 151.000 243.300 M159.600 245.000 L 159.600 247.400 158.700 247.400 L 157.800 247.400 157.800 248.600 L 157.800 249.800 158.700 249.800 L 159.600 249.800 159.601 254.450 C 159.603 263.484,160.967 265.211,167.250 264.138 L 168.200 263.975 168.200 262.707 L 168.200 261.439 167.268 261.720 C 163.186 262.948,162.411 261.836,162.404 254.750 L 162.400 249.800 165.300 249.800 L 168.200 249.800 168.200 248.600 L 168.200 247.400 165.300 247.400 L 162.400 247.400 162.400 245.000 L 162.400 242.600 161.000 242.600 L 159.600 242.600 159.600 245.000 M99.646 247.297 C 95.704 248.408,93.577 251.825,93.854 256.600 C 94.145 261.598,97.089 264.239,102.400 264.267 C 104.695 264.280,105.462 264.145,107.547 263.365 L 108.600 262.971 108.600 261.489 L 108.600 260.008 107.348 260.696 C 102.320 263.459,97.133 261.702,96.655 257.073 L 96.544 256.000 102.698 256.000 L 108.852 256.000 108.761 253.944 C 108.531 248.775,104.592 245.902,99.646 247.297 M116.700 247.268 C 112.648 248.328,110.984 251.851,113.156 254.774 C 113.831 255.683,115.309 256.321,118.104 256.913 C 121.199 257.569,121.742 257.813,122.119 258.715 C 123.492 262.002,117.746 263.169,113.318 260.502 L 112.184 259.820 112.242 261.460 L 112.300 263.100 113.932 263.647 C 120.129 265.726,125.898 262.989,124.995 258.400 C 124.897 257.905,124.814 257.433,124.809 257.351 C 124.748 256.316,122.475 255.076,119.600 254.510 C 115.913 253.784,114.856 253.084,115.067 251.510 C 115.386 249.129,119.737 248.652,123.358 250.601 L 124.416 251.170 124.358 249.643 L 124.300 248.116 122.810 247.650 C 120.969 247.074,118.122 246.896,116.700 247.268 M205.000 247.200 C 204.395 247.299,203.540 247.455,203.100 247.548 L 202.300 247.717 202.242 249.140 L 202.183 250.563 203.742 250.044 C 208.073 248.600,211.997 249.641,211.999 252.234 L 212.000 252.968 210.650 253.089 C 202.858 253.784,200.970 254.900,200.842 258.885 C 200.678 264.010,206.448 266.201,211.092 262.777 L 211.900 262.181 211.961 263.091 L 212.022 264.000 213.421 264.000 L 214.820 264.000 214.760 257.444 L 214.700 250.888 214.192 249.894 C 213.025 247.614,209.254 246.508,205.000 247.200 M226.947 247.205 C 226.033 247.435,224.721 248.080,223.875 248.714 C 223.133 249.270,223.000 249.186,223.000 248.167 L 223.000 247.400 221.700 247.400 L 220.400 247.400 220.400 258.800 L 220.400 270.200 221.700 270.200 L 223.000 270.200 223.000 266.833 C 223.000 263.037,222.986 263.083,223.975 263.585 C 228.777 266.024,234.007 262.968,234.843 257.236 C 235.798 250.685,232.046 245.919,226.947 247.205 M246.125 247.210 C 245.199 247.442,243.562 248.243,242.828 248.822 L 242.300 249.239 242.239 248.320 L 242.178 247.400 240.889 247.400 L 239.600 247.400 239.600 258.800 L 239.600 270.200 240.900 270.200 L 242.200 270.200 242.200 266.723 L 242.200 263.246 243.450 263.761 C 247.341 265.362,251.432 263.766,253.221 259.948 L 253.900 258.500 253.895 255.400 C 253.886 249.205,250.864 246.020,246.125 247.210 M263.205 247.308 C 260.063 248.189,258.076 250.606,257.555 254.177 C 256.446 261.785,262.374 266.178,270.332 263.645 L 272.100 263.083 272.158 261.560 L 272.216 260.038 270.948 260.711 C 265.831 263.428,260.820 261.705,260.267 257.038 L 260.144 256.000 266.272 256.000 L 272.400 256.000 272.400 254.336 C 272.400 248.931,268.378 245.857,263.205 247.308 M283.131 247.395 C 282.488 247.600,281.477 248.090,280.884 248.484 C 279.545 249.373,279.600 249.381,279.600 248.300 L 279.600 247.400 278.300 247.400 L 277.000 247.400 277.000 255.700 L 277.000 264.000 278.300 264.000 L 279.600 264.000 279.600 257.814 L 279.600 251.627 280.150 251.239 C 283.093 249.163,286.364 249.057,287.493 251.000 C 287.874 251.655,287.904 252.092,287.963 257.850 L 288.026 264.000 289.428 264.000 L 290.829 264.000 290.764 257.550 C 290.701 251.266,290.687 251.073,290.226 250.052 C 289.059 247.467,286.226 246.406,283.131 247.395 M299.800 247.265 C 295.165 248.352,293.594 253.413,297.200 255.639 C 298.031 256.152,298.861 256.400,302.700 257.282 C 304.397 257.672,305.043 258.113,305.279 259.043 C 306.087 262.225,300.351 263.076,296.132 260.400 L 295.184 259.799 295.242 261.445 L 295.300 263.092 297.000 263.682 C 303.199 265.835,309.273 262.726,308.012 258.045 C 307.495 256.126,306.115 255.216,302.645 254.508 C 299.181 253.802,298.360 253.384,298.099 252.196 C 297.489 249.419,302.408 248.458,306.338 250.586 L 307.400 251.162 307.400 249.676 C 307.400 248.241,307.381 248.183,306.850 247.972 C 304.779 247.151,301.631 246.835,299.800 247.265 M151.200 255.700 L 151.200 264.000 152.600 264.000 L 154.000 264.000 154.000 255.700 L 154.000 247.400 152.600 247.400 L 151.200 247.400 151.200 255.700 M103.663 249.490 C 105.035 249.979,105.893 251.165,106.131 252.899 L 106.254 253.800 101.427 253.800 C 96.075 253.800,96.374 253.892,96.896 252.412 C 97.815 249.808,100.863 248.491,103.663 249.490 M267.100 249.423 C 268.542 249.822,269.800 251.615,269.800 253.273 L 269.800 253.800 264.984 253.800 L 260.168 253.800 260.309 253.150 C 260.953 250.164,263.909 248.542,267.100 249.423 M229.806 250.050 C 233.536 251.935,232.745 260.468,228.735 261.590 C 227.489 261.939,225.120 261.760,223.913 261.226 L 222.993 260.819 223.046 256.160 L 223.100 251.500 224.074 250.849 C 225.990 249.569,228.234 249.256,229.806 250.050 M248.920 249.981 C 250.575 250.733,251.100 252.065,251.100 255.514 C 251.100 260.792,248.367 262.933,243.591 261.397 L 242.200 260.950 242.200 256.191 L 242.200 251.433 242.928 250.982 C 245.121 249.627,247.328 249.258,248.920 249.981 M211.956 257.637 L 211.900 260.074 210.428 260.865 C 207.080 262.665,203.859 261.924,203.642 259.303 C 203.413 256.545,205.535 255.378,211.056 255.226 L 212.012 255.200 211.956 257.637 M130.045 264.550 C 129.357 267.163,128.795 269.372,128.797 269.460 C 128.799 269.549,129.261 269.594,129.825 269.560 L 130.849 269.500 132.924 264.700 C 134.066 262.060,135.000 259.877,135.000 259.850 C 135.000 259.822,134.167 259.800,133.148 259.800 L 131.297 259.800 130.045 264.550 M313.400 261.900 L 313.400 264.000 315.100 264.000 L 316.800 264.000 316.800 261.900 L 316.800 259.800 315.100 259.800 L 313.400 259.800 313.400 261.900 M131.000 283.225 C 130.189 283.548,129.614 284.215,129.486 284.982 C 129.280 286.208,129.185 286.400,128.787 286.400 C 128.490 286.400,128.400 286.540,128.400 287.000 C 128.400 287.467,128.489 287.600,128.800 287.600 C 129.185 287.600,129.200 287.733,129.200 291.200 L 129.200 294.800 129.900 294.800 L 130.600 294.800 130.600 291.200 L 130.600 287.600 131.900 287.600 L 133.200 287.600 133.200 287.000 L 133.200 286.400 131.900 286.400 C 130.602 286.400,130.600 286.399,130.600 285.827 C 130.600 284.735,131.300 284.156,132.528 284.233 C 133.571 284.298,133.601 284.285,133.600 283.771 C 133.600 283.004,132.260 282.722,131.000 283.225 M154.000 284.891 L 154.000 286.782 153.175 286.491 C 150.398 285.511,148.002 287.507,148.002 290.800 C 148.002 294.076,150.317 295.819,152.916 294.501 C 154.096 293.902,154.000 293.911,154.000 294.400 C 154.000 294.724,154.133 294.800,154.700 294.800 L 155.400 294.800 155.400 288.900 L 155.400 283.000 154.700 283.000 L 154.000 283.000 154.000 284.891 M176.200 288.900 L 176.200 294.800 176.795 294.800 L 177.390 294.800 177.445 291.550 L 177.500 288.300 178.392 287.850 C 181.055 286.507,181.775 287.440,181.791 292.250 L 181.800 294.800 182.413 294.800 L 183.026 294.800 182.963 291.314 C 182.906 288.147,182.862 287.776,182.482 287.264 C 181.576 286.043,179.502 285.931,177.971 287.021 L 177.400 287.427 177.400 285.214 L 177.400 283.000 176.800 283.000 L 176.200 283.000 176.200 288.900 M270.200 288.900 L 270.200 294.800 270.800 294.800 L 271.400 294.800 271.400 288.900 L 271.400 283.000 270.800 283.000 L 270.200 283.000 270.200 288.900 M293.000 288.900 L 293.000 294.800 293.700 294.800 L 294.400 294.800 294.400 293.305 C 294.400 291.489,295.077 290.657,295.813 291.567 C 297.759 293.970,298.772 294.824,299.601 294.762 L 300.425 294.700 298.404 292.512 L 296.383 290.324 298.338 288.362 L 300.292 286.400 299.360 286.400 C 298.436 286.400,298.411 286.418,296.570 288.400 C 295.549 289.500,294.642 290.400,294.556 290.400 C 294.470 290.400,294.400 288.735,294.400 286.700 L 294.400 283.000 293.700 283.000 L 293.000 283.000 293.000 288.900 M332.417 283.350 C 331.624 283.756,331.000 284.812,331.000 285.747 C 331.000 286.310,330.931 286.400,330.500 286.400 C 330.078 286.400,330.000 286.493,330.000 287.000 C 330.000 287.507,330.078 287.600,330.500 287.600 L 331.000 287.600 331.000 291.200 L 331.000 294.800 331.700 294.800 L 332.400 294.800 332.400 291.200 L 332.400 287.600 333.600 287.600 L 334.800 287.600 334.800 287.000 L 334.800 286.400 333.478 286.400 L 332.155 286.400 332.288 285.650 C 332.485 284.534,333.064 284.139,334.348 284.246 C 335.381 284.331,335.400 284.323,335.400 283.788 C 335.400 282.921,333.733 282.676,332.417 283.350 M42.304 284.038 C 42.369 284.292,43.032 286.795,43.777 289.600 L 45.132 294.700 45.919 294.759 L 46.705 294.818 47.780 290.459 C 48.371 288.062,48.916 285.982,48.992 285.837 C 49.068 285.693,49.654 287.655,50.295 290.197 L 51.460 294.820 52.270 294.760 L 53.081 294.700 54.513 289.200 L 55.946 283.700 55.344 283.635 C 54.559 283.551,54.659 283.305,53.404 288.385 C 52.804 290.813,52.259 292.800,52.194 292.800 C 52.129 292.800,51.584 290.752,50.983 288.250 L 49.890 283.700 49.157 283.639 C 48.305 283.567,48.541 282.973,47.090 288.841 C 46.554 291.008,46.067 292.734,46.007 292.676 C 45.948 292.618,45.400 290.575,44.789 288.135 L 43.679 283.700 42.933 283.638 C 42.240 283.580,42.195 283.609,42.304 284.038 M134.600 284.300 C 134.600 284.967,134.633 285.000,135.300 285.000 C 135.967 285.000,136.000 284.967,136.000 284.300 C 136.000 283.633,135.967 283.600,135.300 283.600 C 134.633 283.600,134.600 283.633,134.600 284.300 M302.000 284.300 C 302.000 284.967,302.033 285.000,302.700 285.000 C 303.367 285.000,303.400 284.967,303.400 284.300 C 303.400 283.633,303.367 283.600,302.700 283.600 C 302.033 283.600,302.000 283.633,302.000 284.300 M117.800 285.200 C 117.800 286.267,117.756 286.400,117.400 286.400 C 117.089 286.400,117.000 286.533,117.000 287.000 C 117.000 287.467,117.089 287.600,117.400 287.600 C 117.778 287.600,117.800 287.733,117.800 290.051 C 117.800 294.289,118.545 295.324,121.301 294.910 C 122.804 294.685,122.667 293.631,121.150 293.749 C 119.394 293.887,119.312 293.745,119.235 290.417 L 119.170 287.600 120.685 287.600 L 122.200 287.600 122.200 287.000 L 122.200 286.400 120.700 286.400 L 119.200 286.400 119.200 285.200 L 119.200 284.000 118.500 284.000 L 117.800 284.000 117.800 285.200 M195.000 285.200 C 195.000 286.267,194.956 286.400,194.600 286.400 C 194.289 286.400,194.200 286.533,194.200 287.000 C 194.200 287.467,194.289 287.600,194.600 287.600 C 194.978 287.600,195.000 287.733,195.000 290.051 C 195.000 294.289,195.745 295.324,198.501 294.910 C 200.004 294.685,199.867 293.631,198.350 293.749 C 196.594 293.887,196.512 293.745,196.435 290.417 L 196.370 287.600 197.885 287.600 L 199.400 287.600 199.400 287.000 L 199.400 286.400 197.900 286.400 L 196.400 286.400 196.400 285.200 L 196.400 284.000 195.700 284.000 L 195.000 284.000 195.000 285.200 M59.331 286.480 C 56.628 287.485,55.850 291.659,57.955 293.857 C 59.518 295.489,64.200 295.248,64.200 293.535 L 64.200 292.850 63.361 293.265 C 60.910 294.478,58.200 293.369,58.200 291.153 L 58.200 290.600 61.200 290.600 L 64.200 290.600 64.200 289.577 C 64.200 287.066,61.821 285.553,59.331 286.480 M73.698 286.573 C 70.731 287.921,70.484 293.150,73.324 294.498 C 75.218 295.397,78.000 294.919,78.000 293.694 C 78.000 292.877,78.070 292.897,76.972 293.396 C 74.540 294.499,72.734 293.307,72.734 290.600 C 72.734 287.914,74.560 286.710,76.972 287.804 C 78.070 288.302,78.000 288.323,78.000 287.508 C 78.000 286.360,75.408 285.796,73.698 286.573 M81.300 286.319 C 81.080 286.372,80.698 286.459,80.450 286.512 C 80.091 286.588,80.000 286.744,80.000 287.284 L 80.000 287.961 80.932 287.680 C 83.075 287.035,85.000 287.553,85.000 288.775 C 85.000 289.114,84.814 289.187,83.650 289.302 C 80.501 289.613,79.400 290.380,79.400 292.265 C 79.400 294.641,81.910 295.763,84.161 294.394 C 84.964 293.906,85.000 293.906,85.000 294.400 C 85.000 294.725,85.133 294.800,85.713 294.800 L 86.426 294.800 86.363 291.414 C 86.294 287.686,86.157 287.239,84.893 286.621 C 84.312 286.336,82.026 286.144,81.300 286.319 M92.100 286.444 C 91.770 286.561,91.252 286.830,90.950 287.042 L 90.400 287.427 90.400 286.914 C 90.400 286.476,90.311 286.400,89.800 286.400 L 89.200 286.400 89.200 290.600 L 89.200 294.800 89.795 294.800 L 90.390 294.800 90.445 291.550 L 90.500 288.300 91.392 287.850 C 94.055 286.507,94.775 287.440,94.791 292.250 L 94.800 294.800 95.400 294.800 L 96.000 294.800 96.000 291.550 C 95.999 286.808,94.950 285.434,92.100 286.444 M101.284 286.699 C 100.104 287.298,100.200 287.289,100.200 286.800 C 100.200 286.476,100.067 286.400,99.500 286.400 L 98.800 286.400 98.800 290.600 L 98.800 294.800 99.500 294.800 L 100.200 294.800 100.200 291.535 L 100.200 288.271 101.072 287.835 C 103.642 286.552,104.283 287.262,104.363 291.482 L 104.427 294.800 105.130 294.800 L 105.834 294.800 105.767 291.450 C 105.668 286.488,104.383 285.127,101.284 286.699 M110.063 286.589 C 106.455 288.227,107.734 294.973,111.656 294.996 C 113.342 295.005,114.832 293.914,115.305 292.322 C 116.493 288.321,113.487 285.034,110.063 286.589 M141.900 286.444 C 141.570 286.561,141.053 286.830,140.750 287.042 L 140.200 287.427 140.200 286.914 C 140.200 286.476,140.111 286.400,139.600 286.400 L 139.000 286.400 139.000 290.600 L 139.000 294.800 139.595 294.800 L 140.190 294.800 140.245 291.550 L 140.300 288.300 141.192 287.850 C 143.855 286.507,144.575 287.440,144.591 292.250 L 144.600 294.800 145.200 294.800 L 145.800 294.800 145.800 291.550 C 145.799 286.808,144.750 285.434,141.900 286.444 M187.300 286.319 C 187.080 286.372,186.697 286.459,186.450 286.512 C 186.091 286.588,186.000 286.744,186.000 287.284 L 186.000 287.961 186.932 287.680 C 188.870 287.097,190.425 287.412,190.791 288.460 C 191.053 289.211,191.213 289.122,189.144 289.374 C 186.354 289.713,185.202 290.538,185.201 292.200 C 185.200 294.493,187.460 295.645,189.716 294.501 C 190.906 293.897,191.000 293.890,191.000 294.400 C 191.000 294.711,191.133 294.800,191.600 294.800 L 192.200 294.800 192.200 291.490 C 192.200 287.787,192.060 287.248,190.948 286.673 C 190.315 286.346,188.087 286.130,187.300 286.319 M217.246 286.439 C 213.867 287.582,214.056 293.836,217.499 294.800 C 220.292 295.582,222.400 293.775,222.400 290.600 C 222.400 287.386,220.051 285.490,217.246 286.439 M241.300 286.319 C 241.080 286.372,240.697 286.459,240.450 286.512 C 240.091 286.588,240.000 286.744,240.000 287.284 L 240.000 287.961 240.932 287.680 C 242.874 287.096,244.510 287.422,244.855 288.463 C 245.093 289.179,245.194 289.125,243.158 289.372 C 241.045 289.629,239.974 290.130,239.528 291.070 C 238.235 293.793,241.085 295.943,243.985 294.431 C 244.995 293.905,245.000 293.904,245.000 294.400 C 245.000 294.711,245.133 294.800,245.600 294.800 L 246.200 294.800 246.200 291.490 C 246.200 287.787,246.060 287.248,244.948 286.673 C 244.315 286.346,242.087 286.130,241.300 286.319 M257.758 286.398 C 254.515 287.375,254.013 292.883,257.025 294.439 C 258.144 295.017,259.603 295.113,261.105 294.706 L 262.400 294.356 262.400 293.585 L 262.400 292.813 261.694 293.230 C 259.492 294.529,256.827 293.556,256.465 291.321 L 256.348 290.600 259.502 290.600 L 262.656 290.600 262.542 289.492 C 262.283 286.990,260.220 285.656,257.758 286.398 M276.251 286.423 C 273.391 287.250,272.849 292.762,275.469 294.381 C 277.609 295.704,280.531 294.622,281.186 292.264 C 282.239 288.471,279.674 285.435,276.251 286.423 M285.277 286.583 C 281.495 288.300,282.747 294.972,286.856 294.996 C 289.225 295.009,290.591 293.402,290.591 290.600 C 290.591 287.144,288.133 285.286,285.277 286.583 M309.125 286.494 C 308.699 286.646,308.253 286.867,308.135 286.985 C 307.806 287.314,307.600 287.242,307.600 286.800 C 307.600 286.476,307.467 286.400,306.900 286.400 L 306.200 286.400 306.200 290.600 L 306.200 294.800 306.895 294.800 L 307.590 294.800 307.645 291.556 L 307.700 288.312 308.500 287.859 C 310.987 286.452,311.800 287.370,311.800 291.591 L 311.800 294.800 312.500 294.800 L 313.200 294.800 313.196 291.650 C 313.189 286.735,312.147 285.416,309.125 286.494 M317.692 286.576 C 315.607 287.523,314.767 290.484,315.903 292.879 C 316.661 294.475,318.703 295.043,320.450 294.143 L 321.400 293.654 321.400 294.314 C 321.400 296.336,319.608 297.110,316.835 296.284 C 316.406 296.156,316.376 296.197,316.435 296.823 C 316.552 298.047,320.279 298.143,321.552 296.954 C 322.630 295.947,322.693 295.628,322.766 290.850 L 322.833 286.400 322.117 286.400 C 321.722 286.400,321.400 286.486,321.400 286.591 C 321.400 286.696,321.030 286.652,320.575 286.491 C 319.483 286.106,318.674 286.130,317.692 286.576 M338.251 286.423 C 335.391 287.250,334.849 292.762,337.469 294.381 C 339.609 295.704,342.531 294.622,343.186 292.264 C 344.239 288.471,341.674 285.435,338.251 286.423 M134.600 290.600 L 134.600 294.800 135.300 294.800 L 136.000 294.800 136.000 290.600 L 136.000 286.400 135.300 286.400 L 134.600 286.400 134.600 290.600 M162.875 286.750 C 162.932 286.943,163.305 288.360,163.705 289.900 C 165.058 295.107,164.947 294.831,165.654 294.761 C 166.266 294.701,166.286 294.662,167.282 291.650 C 167.837 289.973,168.353 288.600,168.429 288.600 C 168.505 288.600,169.033 290.000,169.604 291.711 L 170.641 294.822 171.253 294.761 L 171.866 294.700 172.800 291.100 C 173.314 289.120,173.796 287.252,173.871 286.950 C 174.000 286.432,173.968 286.400,173.335 286.400 L 172.663 286.400 172.000 289.450 C 171.636 291.127,171.281 292.566,171.213 292.646 C 171.144 292.726,170.612 291.354,170.030 289.596 C 168.537 285.088,168.285 285.081,166.900 289.511 C 166.365 291.222,165.872 292.656,165.804 292.697 C 165.737 292.739,165.342 291.339,164.928 289.587 L 164.174 286.400 163.473 286.400 C 162.901 286.400,162.792 286.464,162.875 286.750 M205.706 286.818 C 205.779 287.048,206.511 288.822,207.334 290.761 L 208.830 294.285 208.115 295.932 C 207.249 297.924,207.253 297.800,208.067 297.800 L 208.734 297.800 210.896 292.750 C 212.085 289.973,213.183 287.402,213.337 287.037 L 213.616 286.375 212.883 286.437 L 212.150 286.500 210.932 289.450 C 210.262 291.072,209.653 292.400,209.579 292.400 C 209.504 292.400,208.973 291.257,208.399 289.859 C 206.870 286.142,207.031 286.400,206.254 286.400 C 205.654 286.400,205.589 286.450,205.706 286.818 M224.630 289.759 C 224.707 293.472,224.820 293.852,226.061 294.609 C 226.925 295.136,227.935 295.100,229.116 294.501 C 230.296 293.902,230.200 293.911,230.200 294.400 C 230.200 294.724,230.333 294.800,230.900 294.800 L 231.600 294.800 231.600 290.600 L 231.600 286.400 230.900 286.400 L 230.200 286.400 230.200 289.682 L 230.200 292.964 229.337 293.382 C 226.750 294.635,226.117 293.932,226.037 289.718 L 225.973 286.400 225.266 286.400 L 224.560 286.400 224.630 289.759 M249.000 290.600 L 249.000 294.800 249.700 294.800 L 250.400 294.800 250.400 291.814 L 250.400 288.827 251.050 288.364 C 251.564 287.997,251.963 287.900,252.959 287.900 L 254.217 287.900 254.159 287.200 C 254.077 286.228,253.164 286.144,251.547 286.960 L 250.400 287.538 250.400 286.969 C 250.400 286.452,250.336 286.400,249.700 286.400 L 249.000 286.400 249.000 290.600 M302.000 290.600 L 302.000 294.800 302.700 294.800 L 303.400 294.800 303.400 290.600 L 303.400 286.400 302.700 286.400 L 302.000 286.400 302.000 290.600 M345.600 290.600 L 345.600 294.800 346.300 294.800 L 347.000 294.800 347.000 291.814 L 347.000 288.827 347.650 288.364 C 348.164 287.997,348.563 287.900,349.559 287.900 L 350.817 287.900 350.759 287.200 C 350.677 286.228,349.764 286.144,348.147 286.960 L 347.000 287.538 347.000 286.969 C 347.000 286.452,346.936 286.400,346.300 286.400 L 345.600 286.400 345.600 290.600 M61.971 287.685 C 62.274 287.842,62.630 288.206,62.761 288.494 C 63.253 289.574,63.203 289.600,60.600 289.600 C 58.555 289.600,58.200 289.554,58.200 289.287 C 58.200 287.886,60.484 286.916,61.971 287.685 M113.302 288.062 C 115.084 289.844,114.095 293.806,111.870 293.797 C 110.159 293.790,109.341 292.757,109.341 290.600 C 109.341 287.747,111.563 286.323,113.302 288.062 M153.370 287.620 L 154.000 287.839 154.000 290.402 L 154.000 292.964 153.137 293.382 C 150.744 294.540,149.214 293.237,149.454 290.247 C 149.645 287.871,151.165 286.851,153.370 287.620 M219.789 287.653 C 221.502 288.520,221.515 292.613,219.807 293.497 C 217.361 294.761,215.312 291.827,216.524 288.798 C 217.026 287.545,218.531 287.017,219.789 287.653 M260.615 287.985 C 260.959 288.328,261.200 288.782,261.200 289.085 L 261.200 289.600 258.800 289.600 C 256.237 289.600,256.194 289.579,256.703 288.595 C 257.378 287.289,259.577 286.946,260.615 287.985 M278.785 287.692 C 281.047 288.862,280.089 293.800,277.600 293.800 C 276.031 293.800,275.200 292.704,275.200 290.636 C 275.200 287.991,276.809 286.670,278.785 287.692 M288.157 287.712 C 289.768 288.841,289.657 292.703,287.989 293.547 C 285.851 294.628,284.051 292.626,284.495 289.662 C 284.773 287.811,286.775 286.745,288.157 287.712 M320.770 287.620 L 321.400 287.839 321.400 290.229 L 321.400 292.620 320.550 293.005 C 318.403 293.980,317.057 293.249,316.853 290.997 C 316.601 288.221,318.298 286.758,320.770 287.620 M340.785 287.692 C 343.047 288.862,342.089 293.800,339.600 293.800 C 338.031 293.800,337.200 292.704,337.200 290.636 C 337.200 287.991,338.809 286.670,340.785 287.692 M85.000 291.586 C 85.000 293.424,82.621 294.591,81.207 293.446 C 79.641 292.178,81.309 290.459,84.150 290.413 L 85.000 290.400 85.000 291.586 M191.000 291.584 C 191.000 293.500,188.267 294.639,186.914 293.285 C 185.633 292.004,187.339 290.494,190.150 290.422 L 191.000 290.400 191.000 291.584 M244.960 291.645 C 244.867 293.573,242.411 294.629,241.091 293.309 C 239.680 291.899,241.164 290.503,244.160 290.423 L 245.019 290.400 244.960 291.645 M350.600 293.700 L 350.600 294.800 351.400 294.800 L 352.200 294.800 352.200 293.700 L 352.200 292.600 351.400 292.600 L 350.600 292.600 350.600 293.700 M31.677 362.983 C 30.615 363.465,30.200 364.076,30.200 365.158 C 30.200 366.745,30.751 367.194,33.348 367.725 C 35.039 368.070,35.600 368.417,35.600 369.115 C 35.600 370.807,33.372 371.363,31.128 370.231 L 30.000 369.662 30.000 370.341 C 30.000 372.240,35.250 372.239,36.408 370.340 C 37.520 368.517,36.470 367.115,33.605 366.599 C 31.658 366.249,31.025 365.726,31.286 364.685 C 31.600 363.433,33.626 363.270,36.065 364.300 C 36.382 364.434,36.421 364.366,36.365 363.777 C 36.262 362.699,33.378 362.210,31.677 362.983 M40.931 362.892 C 37.347 364.170,37.513 370.579,41.156 371.591 C 44.171 372.428,46.391 370.566,46.391 367.200 C 46.391 363.747,43.945 361.817,40.931 362.892 M138.070 362.806 C 135.282 363.670,135.728 367.013,138.707 367.581 C 140.976 368.014,141.405 368.187,141.627 368.761 C 142.297 370.488,139.224 371.480,137.095 370.224 C 136.179 369.683,136.200 369.677,136.200 370.480 C 136.200 372.182,140.880 372.251,142.294 370.570 C 143.770 368.816,142.669 367.132,139.700 366.604 C 137.866 366.277,137.400 365.978,137.400 365.126 C 137.400 363.496,139.427 363.151,142.250 364.300 C 142.537 364.417,142.600 364.335,142.600 363.841 C 142.600 362.917,139.787 362.274,138.070 362.806 M205.983 362.778 C 203.034 363.745,203.387 366.986,206.507 367.581 C 208.744 368.008,209.206 368.191,209.411 368.729 C 210.083 370.496,207.217 371.433,204.844 370.223 L 204.000 369.792 204.000 370.476 C 204.000 372.099,208.375 372.265,209.938 370.702 C 211.797 368.843,209.750 366.400,206.333 366.400 C 205.790 366.400,205.150 365.696,205.150 365.099 C 205.150 363.693,207.502 363.115,209.381 364.058 C 210.244 364.492,210.200 364.506,210.200 363.795 C 210.200 362.901,207.554 362.263,205.983 362.778 M263.731 362.892 C 260.147 364.170,260.313 370.579,263.956 371.591 C 266.971 372.428,269.191 370.566,269.191 367.200 C 269.191 363.747,266.745 361.817,263.731 362.892 M300.109 362.906 C 296.473 364.293,296.727 370.608,300.459 371.617 C 302.389 372.138,304.800 371.390,304.800 370.269 L 304.800 369.612 304.080 370.101 C 300.721 372.380,297.220 368.769,299.162 365.027 C 300.016 363.381,302.871 363.117,304.443 364.539 C 304.780 364.844,304.800 364.820,304.800 364.121 C 304.800 362.899,302.016 362.178,300.109 362.906 M327.100 362.853 C 325.167 363.649,324.500 364.768,324.500 367.216 C 324.500 370.936,327.877 373.058,330.761 371.149 C 334.870 368.430,331.593 361.004,327.100 362.853 M343.500 362.853 C 341.567 363.649,340.900 364.768,340.900 367.216 C 340.900 370.936,344.277 373.058,347.161 371.149 C 351.270 368.430,347.993 361.004,343.500 362.853 M353.647 362.784 C 351.656 363.293,350.600 364.814,350.600 367.170 C 350.600 370.851,353.185 372.573,356.981 371.420 L 358.400 370.988 358.400 369.094 L 358.400 367.200 356.600 367.200 C 354.813 367.200,354.800 367.204,354.800 367.700 C 354.800 368.178,354.853 368.200,356.000 368.200 L 357.200 368.200 357.200 369.306 C 357.200 370.633,357.098 370.700,355.065 370.700 C 352.765 370.700,351.700 369.592,351.700 367.200 C 351.700 364.079,354.611 362.590,357.450 364.258 L 358.400 364.817 358.400 364.130 C 358.400 363.055,355.641 362.273,353.647 362.784 M48.434 366.350 C 48.521 371.042,49.261 372.085,52.249 371.732 C 54.582 371.455,54.999 370.609,55.000 366.150 L 55.000 362.800 54.517 362.800 L 54.034 362.800 53.967 366.150 C 53.884 370.311,53.635 370.800,51.602 370.800 C 49.851 370.800,49.412 369.752,49.405 365.550 L 49.400 362.800 48.884 362.800 L 48.368 362.800 48.434 366.350 M56.400 363.300 C 56.400 363.789,56.433 363.800,57.900 363.800 L 59.400 363.800 59.400 367.700 L 59.400 371.600 60.000 371.600 L 60.600 371.600 60.600 367.700 L 60.600 363.800 62.200 363.800 C 63.773 363.800,63.800 363.792,63.800 363.300 L 63.800 362.800 60.100 362.800 L 56.400 362.800 56.400 363.300 M65.000 367.200 L 65.000 371.600 65.600 371.600 L 66.200 371.600 66.200 369.400 L 66.200 367.200 68.400 367.200 L 70.600 367.200 70.600 369.400 L 70.600 371.600 71.200 371.600 L 71.800 371.600 71.800 367.200 L 71.800 362.800 71.200 362.800 L 70.600 362.800 70.600 364.500 L 70.600 366.200 68.400 366.200 L 66.200 366.200 66.200 364.500 L 66.200 362.800 65.600 362.800 L 65.000 362.800 65.000 367.200 M74.200 367.200 L 74.200 371.600 77.100 371.600 L 80.000 371.600 80.000 371.100 L 80.000 370.600 77.700 370.600 L 75.400 370.600 75.400 368.900 L 75.400 367.200 77.700 367.200 L 80.000 367.200 80.000 366.700 L 80.000 366.200 77.700 366.200 L 75.400 366.200 75.400 365.000 L 75.400 363.800 77.700 363.800 L 80.000 363.800 80.000 363.300 L 80.000 362.800 77.100 362.800 L 74.200 362.800 74.200 367.200 M82.000 367.200 L 82.000 371.600 82.600 371.600 L 83.200 371.600 83.200 369.800 L 83.200 368.000 84.067 368.000 C 84.918 368.000,84.961 368.034,86.389 369.800 C 87.726 371.455,87.901 371.600,88.553 371.600 C 89.205 371.600,89.239 371.572,88.973 371.250 C 88.814 371.058,88.191 370.315,87.589 369.600 C 85.809 367.486,85.890 367.667,86.559 367.321 C 87.773 366.694,88.156 364.853,87.287 363.821 C 86.642 363.055,85.742 362.803,83.650 362.801 L 82.000 362.800 82.000 367.200 M90.600 367.200 L 90.600 371.600 91.096 371.600 L 91.591 371.600 91.646 367.750 L 91.700 363.900 93.764 367.750 L 95.828 371.600 96.514 371.600 L 97.200 371.600 97.200 367.200 L 97.200 362.800 96.700 362.800 L 96.200 362.800 96.194 366.350 C 96.186 370.496,96.367 370.522,94.000 366.032 L 92.300 362.808 91.450 362.804 L 90.600 362.800 90.600 367.200 M104.000 367.200 L 104.000 371.600 104.600 371.600 L 105.200 371.600 105.200 369.400 L 105.200 367.200 107.400 367.200 L 109.600 367.200 109.600 369.400 L 109.600 371.600 110.200 371.600 L 110.800 371.600 110.800 367.200 L 110.800 362.800 110.200 362.800 L 109.600 362.800 109.600 364.500 L 109.600 366.200 107.400 366.200 L 105.200 366.200 105.200 364.500 L 105.200 362.800 104.600 362.800 L 104.000 362.800 104.000 367.200 M113.400 367.200 L 113.400 371.600 116.200 371.600 L 119.000 371.600 119.000 371.100 L 119.000 370.600 116.700 370.600 L 114.400 370.600 114.400 368.900 L 114.400 367.200 116.700 367.200 L 119.000 367.200 119.000 366.700 L 119.000 366.200 116.700 366.200 L 114.400 366.200 114.400 365.000 L 114.400 363.800 116.700 363.800 L 119.000 363.800 119.000 363.300 L 119.000 362.800 116.200 362.800 L 113.400 362.800 113.400 367.200 M121.000 367.200 L 121.000 371.600 121.496 371.600 L 121.991 371.600 122.046 367.850 L 122.100 364.100 123.337 366.650 C 124.152 368.331,124.682 369.200,124.892 369.200 C 125.102 369.200,125.636 368.328,126.455 366.650 L 127.700 364.100 127.754 367.850 L 127.809 371.600 128.304 371.600 L 128.800 371.600 128.800 367.200 L 128.800 362.800 128.035 362.800 L 127.270 362.800 126.114 365.250 L 124.958 367.700 123.747 365.250 L 122.537 362.800 121.768 362.800 L 121.000 362.800 121.000 367.200 M131.000 363.300 C 131.000 363.722,131.093 363.800,131.600 363.800 L 132.200 363.800 132.200 367.200 L 132.200 370.600 131.600 370.600 C 131.093 370.600,131.000 370.678,131.000 371.100 C 131.000 371.594,131.020 371.600,132.700 371.600 C 134.380 371.600,134.400 371.594,134.400 371.100 C 134.400 370.678,134.307 370.600,133.800 370.600 L 133.200 370.600 133.200 367.200 L 133.200 363.800 133.800 363.800 C 134.307 363.800,134.400 363.722,134.400 363.300 C 134.400 362.806,134.380 362.800,132.700 362.800 C 131.020 362.800,131.000 362.806,131.000 363.300 M145.000 367.200 L 145.000 371.600 145.500 371.600 C 145.992 371.600,146.000 371.573,146.000 370.000 L 146.000 368.400 146.950 368.399 C 149.236 368.396,150.407 367.522,150.558 365.707 C 150.726 363.683,149.554 362.812,146.650 362.804 L 145.000 362.800 145.000 367.200 M152.400 367.200 L 152.400 371.600 152.900 371.600 L 153.400 371.600 153.400 369.400 L 153.400 367.200 155.700 367.200 L 158.000 367.200 158.000 369.400 L 158.000 371.600 158.500 371.600 L 159.000 371.600 159.000 367.200 L 159.000 362.800 158.500 362.800 C 158.006 362.800,158.000 362.820,158.000 364.500 L 158.000 366.200 155.700 366.200 L 153.400 366.200 153.400 364.500 C 153.400 362.820,153.394 362.800,152.900 362.800 L 152.400 362.800 152.400 367.200 M161.600 367.200 L 161.600 371.600 164.500 371.600 L 167.400 371.600 167.400 371.100 L 167.400 370.600 165.100 370.600 L 162.800 370.600 162.800 368.900 L 162.800 367.200 165.100 367.200 L 167.400 367.200 167.400 366.700 L 167.400 366.200 165.100 366.200 L 162.800 366.200 162.800 365.000 L 162.800 363.800 165.100 363.800 L 167.400 363.800 167.400 363.300 L 167.400 362.800 164.500 362.800 L 161.600 362.800 161.600 367.200 M169.400 367.200 L 169.400 371.600 169.900 371.600 C 170.396 371.600,170.400 371.587,170.400 369.800 L 170.400 368.000 171.295 368.000 C 172.181 368.000,172.207 368.020,173.645 369.789 C 174.924 371.361,175.179 371.579,175.750 371.589 C 176.613 371.604,176.624 371.629,174.882 369.592 L 173.365 367.818 174.182 367.040 C 176.361 364.967,174.820 362.814,171.150 362.804 L 169.400 362.800 169.400 367.200 M178.000 367.200 L 178.000 371.600 180.800 371.600 L 183.600 371.600 183.600 371.100 L 183.600 370.600 181.300 370.600 L 179.000 370.600 179.000 368.900 L 179.000 367.200 181.300 367.200 L 183.600 367.200 183.600 366.700 L 183.600 366.200 181.300 366.200 L 179.000 366.200 179.000 365.000 L 179.000 363.800 181.300 363.800 L 183.600 363.800 183.600 363.300 L 183.600 362.800 180.800 362.800 L 178.000 362.800 178.000 367.200 M189.600 363.300 C 189.600 363.722,189.693 363.800,190.200 363.800 L 190.800 363.800 190.800 367.200 L 190.800 370.600 190.200 370.600 C 189.693 370.600,189.600 370.678,189.600 371.100 C 189.600 371.594,189.620 371.600,191.300 371.600 C 192.980 371.600,193.000 371.594,193.000 371.100 C 193.000 370.678,192.907 370.600,192.400 370.600 L 191.800 370.600 191.800 367.200 L 191.800 363.800 192.400 363.800 C 192.907 363.800,193.000 363.722,193.000 363.300 C 193.000 362.806,192.980 362.800,191.300 362.800 C 189.620 362.800,189.600 362.806,189.600 363.300 M195.200 367.200 L 195.200 371.600 195.696 371.600 L 196.191 371.600 196.246 367.750 L 196.300 363.900 198.364 367.750 L 200.428 371.600 201.114 371.600 L 201.800 371.600 201.800 367.200 L 201.800 362.800 201.300 362.800 L 200.800 362.800 200.794 366.350 C 200.786 370.496,200.967 370.522,198.600 366.032 L 196.900 362.808 196.050 362.804 L 195.200 362.800 195.200 367.200 M211.600 363.300 C 211.600 363.789,211.633 363.800,213.100 363.800 L 214.600 363.800 214.600 367.700 L 214.600 371.600 215.200 371.600 L 215.800 371.600 215.800 367.700 L 215.800 363.800 217.400 363.800 C 218.973 363.800,219.000 363.792,219.000 363.300 L 219.000 362.800 215.300 362.800 L 211.600 362.800 211.600 363.300 M219.800 363.300 C 219.800 363.722,219.893 363.800,220.400 363.800 L 221.000 363.800 221.000 367.200 L 221.000 370.600 220.400 370.600 C 219.893 370.600,219.800 370.678,219.800 371.100 C 219.800 371.594,219.820 371.600,221.500 371.600 C 223.180 371.600,223.200 371.594,223.200 371.100 C 223.200 370.700,223.100 370.600,222.700 370.600 L 222.200 370.600 222.200 367.200 L 222.200 363.800 222.700 363.800 C 223.100 363.800,223.200 363.700,223.200 363.300 C 223.200 362.806,223.180 362.800,221.500 362.800 C 219.820 362.800,219.800 362.806,219.800 363.300 M224.200 363.300 C 224.200 363.792,224.227 363.800,225.800 363.800 L 227.400 363.800 227.400 367.700 L 227.400 371.600 228.000 371.600 L 228.600 371.600 228.600 367.700 L 228.600 363.800 230.200 363.800 C 231.773 363.800,231.800 363.792,231.800 363.300 L 231.800 362.800 228.000 362.800 L 224.200 362.800 224.200 363.300 M232.830 366.150 C 232.923 370.580,233.411 371.486,235.845 371.737 C 238.727 372.034,239.476 370.929,239.567 366.250 L 239.633 362.800 239.029 362.800 L 238.426 362.800 238.363 366.318 L 238.300 369.836 237.739 370.318 C 236.729 371.186,234.756 370.841,234.239 369.706 C 234.086 369.369,234.000 368.038,234.000 365.991 L 234.000 362.800 233.380 362.800 L 232.760 362.800 232.830 366.150 M240.800 363.300 C 240.800 363.792,240.827 363.800,242.400 363.800 L 244.000 363.800 244.000 367.700 L 244.000 371.600 244.500 371.600 L 245.000 371.600 245.000 367.700 L 245.000 363.800 246.600 363.800 C 248.173 363.800,248.200 363.792,248.200 363.300 L 248.200 362.800 244.500 362.800 L 240.800 362.800 240.800 363.300 M249.600 367.200 L 249.600 371.600 252.400 371.600 L 255.200 371.600 255.200 371.100 L 255.200 370.600 252.900 370.600 L 250.600 370.600 250.600 368.900 L 250.600 367.200 252.900 367.200 L 255.200 367.200 255.200 366.700 L 255.200 366.200 252.900 366.200 L 250.600 366.200 250.600 365.000 L 250.600 363.800 252.900 363.800 L 255.200 363.800 255.200 363.300 L 255.200 362.800 252.400 362.800 L 249.600 362.800 249.600 367.200 M271.400 367.200 L 271.400 371.600 271.900 371.600 L 272.400 371.600 272.400 369.500 L 272.400 367.400 274.300 367.400 C 276.193 367.400,276.200 367.398,276.200 366.900 C 276.200 366.402,276.193 366.400,274.300 366.400 L 272.400 366.400 272.400 365.100 L 272.400 363.800 274.600 363.800 L 276.800 363.800 276.800 363.300 L 276.800 362.800 274.100 362.800 L 271.400 362.800 271.400 367.200 M281.400 363.300 C 281.400 363.792,281.427 363.800,283.000 363.800 L 284.600 363.800 284.600 367.700 L 284.600 371.600 285.200 371.600 L 285.800 371.600 285.800 367.700 L 285.800 363.800 287.400 363.800 C 288.973 363.800,289.000 363.792,289.000 363.300 L 289.000 362.800 285.200 362.800 L 281.400 362.800 281.400 363.300 M290.200 367.200 L 290.200 371.600 293.100 371.600 L 296.000 371.600 296.000 371.100 L 296.000 370.600 293.700 370.600 L 291.400 370.600 291.400 368.900 L 291.400 367.200 293.700 367.200 L 296.000 367.200 296.000 366.700 L 296.000 366.200 293.700 366.200 L 291.400 366.200 291.400 365.000 L 291.400 363.800 293.700 363.800 L 296.000 363.800 296.000 363.300 L 296.000 362.800 293.100 362.800 L 290.200 362.800 290.200 367.200 M306.600 367.200 L 306.600 371.600 307.100 371.600 L 307.600 371.600 307.600 369.400 L 307.600 367.200 309.900 367.200 L 312.200 367.200 312.200 369.400 L 312.200 371.600 312.700 371.600 L 313.200 371.600 313.200 367.200 L 313.200 362.800 312.700 362.800 C 312.206 362.800,312.200 362.820,312.200 364.500 L 312.200 366.200 309.900 366.200 L 307.600 366.200 307.600 364.500 C 307.600 362.820,307.594 362.800,307.100 362.800 L 306.600 362.800 306.600 367.200 M315.800 367.200 L 315.800 371.600 316.296 371.600 L 316.792 371.600 316.846 367.657 L 316.900 363.714 318.988 367.657 C 321.058 371.567,321.081 371.600,321.738 371.600 L 322.400 371.600 322.400 367.200 L 322.400 362.800 321.905 362.800 L 321.409 362.800 321.355 366.350 L 321.300 369.900 319.432 366.350 L 317.564 362.800 316.682 362.800 L 315.800 362.800 315.800 367.200 M334.600 367.200 L 334.600 371.600 337.400 371.600 L 340.200 371.600 340.200 371.100 L 340.200 370.600 338.000 370.600 L 335.800 370.600 335.800 366.700 L 335.800 362.800 335.200 362.800 L 334.600 362.800 334.600 367.200 M359.696 363.321 C 359.894 363.625,360.629 364.817,361.329 365.970 L 362.600 368.066 362.600 369.833 C 362.600 371.584,362.604 371.600,363.100 371.600 C 363.598 371.600,363.600 371.594,363.600 369.694 L 363.600 367.789 365.100 365.426 C 366.796 362.754,366.797 362.750,366.060 362.837 C 365.623 362.888,365.305 363.241,364.395 364.688 C 362.984 366.932,363.109 366.930,361.789 364.742 C 360.777 363.063,360.619 362.894,360.006 362.835 L 359.334 362.770 359.696 363.321 M43.916 363.977 C 46.499 365.552,45.409 370.797,42.497 370.799 C 40.618 370.801,39.518 369.472,39.518 367.200 C 39.518 364.330,41.778 362.673,43.916 363.977 M266.716 363.977 C 269.299 365.552,268.209 370.797,265.297 370.799 C 263.418 370.801,262.318 369.472,262.318 367.200 C 262.318 364.330,264.578 362.673,266.716 363.977 M330.406 364.305 C 332.559 366.368,331.258 370.800,328.500 370.800 C 325.555 370.800,324.441 365.777,327.000 364.040 C 327.991 363.367,329.553 363.489,330.406 364.305 M346.806 364.305 C 348.959 366.368,347.658 370.800,344.900 370.800 C 341.955 370.800,340.841 365.777,343.400 364.040 C 344.391 363.367,345.953 363.489,346.806 364.305 M85.863 364.030 C 87.528 364.906,86.653 366.827,84.527 366.962 L 83.200 367.047 83.200 365.423 L 83.200 363.800 84.313 363.800 C 84.925 363.800,85.623 363.903,85.863 364.030 M148.768 364.120 C 150.452 365.300,149.326 367.400,147.010 367.400 L 146.000 367.400 146.000 365.600 L 146.000 363.800 147.155 363.800 C 147.891 363.800,148.477 363.916,148.768 364.120 M173.418 364.174 C 174.750 365.253,173.619 367.000,171.589 367.000 L 170.400 367.000 170.400 365.400 L 170.400 363.800 171.678 363.800 C 172.628 363.800,173.074 363.896,173.418 364.174" />
</svg>